<svg width="61" height="36" xmlns="http://www.w3.org/2000/svg"><path d="M5.615 3.49c-2.674 0-4.9 2.184-4.9 4.816 0 1.274.392 2.366 1.176 3.234.924 1.022 2.31 1.652 3.654 1.652 2.73 0 4.928-2.156 4.928-4.844A4.87 4.87 0 0 0 5.615 3.49zm-.014 1.33c1.96 0 3.458 1.54 3.458 3.528 0 1.974-1.526 3.514-3.5 3.514-.854 0-1.736-.364-2.394-.994-.7-.672-1.036-1.498-1.036-2.548 0-1.96 1.54-3.5 3.472-3.5zm9.8 4.214c1.246-.266 2.072-1.316 2.072-2.618 0-.896-.434-1.736-1.12-2.198-.588-.392-1.26-.546-2.464-.546h-1.652v9.338h1.414V9.188h.252l2.66 3.822h1.722zm-1.75-1.078V5.002h.504c.658 0 1.064.098 1.4.322.336.238.546.658.546 1.106 0 .49-.224.938-.588 1.19-.322.224-.784.336-1.414.336zm10.836.196v1.33h2.324c-.126 1.316-1.386 2.38-2.786 2.38-.784 0-1.61-.336-2.268-.938-.742-.658-1.12-1.526-1.12-2.562 0-2.002 1.512-3.542 3.486-3.542 1.134 0 2.002.476 2.8 1.54l1.008-.966c-.434-.504-.686-.742-1.036-.994a4.715 4.715 0 0 0-2.8-.91 4.84 4.84 0 0 0-4.872 4.872c0 2.66 2.142 4.83 4.76 4.83 1.4 0 2.73-.658 3.542-1.764.574-.784.826-1.624.826-2.842v-.434zm11.102 2.59l.98 2.268h1.54l-4.452-9.926-4.62 9.926h1.512l1.05-2.268zm-.574-1.33h-2.828l1.442-3.164zm4.27 3.598h1.414V6.472l6.804 7.112V3.672h-1.414v6.482l-6.804-7.112zm11.872-9.338h-1.414v9.338h1.414zm9.142.504c-.84-.49-1.526-.686-2.436-.686-2.73 0-4.928 2.184-4.928 4.9 0 2.66 2.156 4.802 4.83 4.802.91 0 1.708-.224 2.534-.7v-1.694c-.924.77-1.596 1.064-2.52 1.064-1.932 0-3.43-1.526-3.43-3.486 0-1.988 1.512-3.556 3.416-3.556.938 0 1.652.294 2.534 1.022z"/></svg>