<svg width="55" height="36" xmlns="http://www.w3.org/2000/svg"><path d="M8.922 4.176c-.84-.49-1.526-.686-2.436-.686-2.73 0-4.928 2.184-4.928 4.9 0 2.66 2.156 4.802 4.83 4.802.91 0 1.708-.224 2.534-.7v-1.694c-.924.77-1.596 1.064-2.52 1.064-1.932 0-3.43-1.526-3.43-3.486 0-1.988 1.512-3.556 3.416-3.556.938 0 1.652.294 2.534 1.022zm6.202-.686c-2.674 0-4.9 2.184-4.9 4.816 0 1.274.392 2.366 1.176 3.234.924 1.022 2.31 1.652 3.654 1.652 2.73 0 4.928-2.156 4.928-4.844a4.87 4.87 0 0 0-4.858-4.858zm-.014 1.33c1.96 0 3.458 1.54 3.458 3.528 0 1.974-1.526 3.514-3.5 3.514-.854 0-1.736-.364-2.394-.994-.7-.672-1.036-1.498-1.036-2.548 0-1.96 1.54-3.5 3.472-3.5zm9.212.182h2.142v-1.33h-5.698v1.33h2.142v8.008h1.414zm5.978 0h2.142v-1.33h-5.698v1.33h2.142v8.008H30.3zm7.84-1.512c-2.674 0-4.9 2.184-4.9 4.816 0 1.274.392 2.366 1.176 3.234.924 1.022 2.31 1.652 3.654 1.652 2.73 0 4.928-2.156 4.928-4.844A4.87 4.87 0 0 0 38.14 3.49zm-.014 1.33c1.96 0 3.458 1.54 3.458 3.528 0 1.974-1.526 3.514-3.5 3.514-.854 0-1.736-.364-2.394-.994-.7-.672-1.036-1.498-1.036-2.548 0-1.96 1.54-3.5 3.472-3.5zm6.636 8.19h1.414V6.472l6.804 7.112V3.672h-1.414v6.482l-6.804-7.112z"/></svg>