<svg width="30" height="28" xmlns="http://www.w3.org/2000/svg"><path d="M8.428.156c-2.666 0-4.96 2.232-4.96 4.805 0 2.697 2.232 4.929 4.929 4.929 2.759 0 5.022-2.201 5.022-4.867S11.156.156 8.428.156zm0 2.232c1.488 0 2.666 1.178 2.666 2.635 0 1.488-1.178 2.666-2.635 2.666-1.488 0-2.666-1.178-2.666-2.697 0-1.426 1.209-2.604 2.635-2.604zM20.177.032L8.335 20.492l1.457.899L21.634.838zm1.333 11.47c-2.666 0-4.96 2.232-4.96 4.805 0 2.728 2.232 4.96 4.929 4.96 2.759 0 5.022-2.201 5.022-4.867 0-2.697-2.263-4.898-4.991-4.898zm0 2.232c1.488 0 2.666 1.178 2.666 2.635 0 1.488-1.178 2.666-2.635 2.666-1.488 0-2.666-1.178-2.666-2.697 0-1.426 1.209-2.604 2.635-2.604z"/></svg>