<svg width="31" height="16" xmlns="http://www.w3.org/2000/svg"><path d="M8.189 1.94c-2.483 0-4.55 2.028-4.55 4.472 0 1.183.364 2.197 1.092 3.003.858.949 2.145 1.534 3.393 1.534 2.535 0 4.576-2.002 4.576-4.498A4.522 4.522 0 0 0 8.189 1.94zm-.013 1.235c1.82 0 3.211 1.43 3.211 3.276 0 1.833-1.417 3.263-3.25 3.263-.793 0-1.612-.338-2.223-.923-.65-.624-.962-1.391-.962-2.366 0-1.82 1.43-3.25 3.224-3.25zm11.491.169V2.109h-4.329v8.671h1.313V6.659h2.912V5.424h-2.912v-2.08zm6.837 0V2.109h-4.329v8.671h1.313V6.659H26.4V5.424h-2.912v-2.08z"/></svg>