<svg width="85" height="22" xmlns="http://www.w3.org/2000/svg"><path d="M9.096 4.188H7.48v6.864c0 1.04.256 1.808.816 2.512a4.03 4.03 0 0 0 3.136 1.504c1.2 0 2.384-.56 3.12-1.504.56-.704.816-1.488.816-2.512V4.188h-1.616v6.432c0 .944-.08 1.392-.336 1.84-.384.672-1.152 1.088-1.984 1.088-.848 0-1.616-.416-2-1.088-.256-.448-.336-.896-.336-1.84zm13.448 5.088c-.448-.912-1.04-1.328-1.92-1.328-1.2 0-2.096.864-2.096 2.032 0 .832.32 1.264 1.312 1.744 1.456.72 1.552.784 1.552 1.232 0 .432-.32.72-.8.72-.464 0-.72-.208-1.088-.88l-1.328.608c.464 1.104 1.264 1.664 2.4 1.664 1.344 0 2.4-.992 2.4-2.272 0-.64-.272-1.152-.816-1.52-.304-.208-.608-.368-1.28-.688-.72-.336-.896-.48-.896-.768 0-.272.224-.48.512-.48.32 0 .544.192.768.624zm8.952 2.592V11.5c0-.88-.192-1.664-.544-2.224-.528-.816-1.552-1.328-2.656-1.328-1.952 0-3.248 1.424-3.248 3.568s1.328 3.552 3.328 3.552c.848 0 1.68-.288 2.272-.816.352-.288.56-.56.912-1.152l-1.312-.736c-.624 1.008-1.04 1.312-1.824 1.312-.992 0-1.664-.704-1.744-1.808zm-4.72-1.264c.192-.768.8-1.248 1.552-1.248.8 0 1.36.448 1.568 1.248zm17.648-2.192c-.624-.336-1.168-.464-1.888-.464-2.064 0-3.68 1.568-3.68 3.584 0 2 1.584 3.536 3.664 3.536.72 0 1.2-.128 1.904-.496v-2.064c-.752.896-1.2 1.168-1.968 1.168-1.168 0-2.016-.912-2.016-2.176 0-1.232.864-2.16 2.048-2.16.752 0 1.216.272 1.936 1.136zm5.768-.464c-1.984 0-3.584 1.568-3.584 3.504 0 2.048 1.552 3.616 3.568 3.616 2.048 0 3.616-1.552 3.616-3.568 0-2-1.568-3.552-3.6-3.552zm0 1.392c1.216 0 2.016.864 2.016 2.176 0 1.296-.8 2.16-2.016 2.16s-2-.864-2-2.192c0-1.28.816-2.144 2-2.144zm11.192-6.144v5.712c-.656-.688-1.264-.96-2.112-.96-1.808 0-3.168 1.52-3.168 3.536 0 2.064 1.36 3.584 3.2 3.584.816 0 1.424-.272 2.08-.912v.704h1.552V3.196zM59.56 9.34c1.136 0 1.92.896 1.92 2.176 0 1.28-.784 2.16-1.936 2.16-1.088 0-1.856-.912-1.856-2.208 0-1.216.8-2.128 1.872-2.128zm12.472 2.528V11.5c0-.88-.192-1.664-.544-2.224-.528-.816-1.552-1.328-2.656-1.328-1.952 0-3.248 1.424-3.248 3.568s1.328 3.552 3.328 3.552c.848 0 1.68-.288 2.272-.816.352-.288.56-.56.912-1.152l-1.312-.736c-.624 1.008-1.04 1.312-1.824 1.312-.992 0-1.664-.704-1.744-1.808zm-4.72-1.264c.192-.768.8-1.248 1.552-1.248.8 0 1.36.448 1.568 1.248zm8.472 2.544a.96.96 0 0 0-.96.944c0 .544.432.976.96.976s.96-.432.96-.96a.963.963 0 0 0-.96-.96zm0-5.2a.96.96 0 0 0-.96.944c0 .544.432.976.96.976s.96-.432.96-.96a.963.963 0 0 0-.96-.96z"/></svg>