<svg width="103" height="52" xmlns="http://www.w3.org/2000/svg"><path d="M14.3 16.804l-3.936 7.392h2.664l8.04-15.6h-2.64l-2.88 5.808-3.072-5.808H9.764zm13.224-8.472c-2.976 0-5.376 2.352-5.376 5.256 0 3.072 2.328 5.424 5.352 5.424 3.072 0 5.424-2.328 5.424-5.352 0-3-2.352-5.328-5.4-5.328zm0 2.088c1.824 0 3.024 1.296 3.024 3.264 0 1.944-1.2 3.24-3.024 3.24s-3-1.296-3-3.288c0-1.92 1.224-3.216 3-3.216zM37.7 8.596h-2.328v5.856c0 1.584.288 2.448 1.056 3.288.816.84 1.92 1.272 3.24 1.272 1.344 0 2.448-.432 3.264-1.272.768-.84 1.056-1.704 1.056-3.288V8.596H41.66v5.808c0 1.728-.624 2.52-1.968 2.52-1.368 0-1.992-.792-1.992-2.52zm9.24 0V18.7h2.328v-5.232c0-1.992.6-2.904 1.896-2.904.48 0 .768.12 1.296.504l1.08-2.136c-.792-.48-1.224-.624-1.944-.624-.912 0-1.464.288-2.328 1.2v-.912zm16.368 2.184h2.544V8.596h-2.544V5.284c0-1.656.24-2.136 1.056-2.136.432 0 .624.072 1.488.504V1.276c-.672-.288-1.008-.36-1.56-.36-1.056 0-2.112.432-2.64 1.104-.48.552-.672 1.368-.672 2.688v3.888h-.84v2.184h.84v7.92h2.328zm6.216-2.184h-2.328V18.7h2.328zm-1.176-5.712c-.816 0-1.512.696-1.512 1.512 0 .84.672 1.536 1.536 1.536.84 0 1.512-.696 1.512-1.536 0-.84-.672-1.512-1.536-1.512zm4.104 5.712V18.7h2.328v-5.232c0-1.992.6-2.904 1.896-2.904.48 0 .768.12 1.296.504l1.08-2.136c-.792-.48-1.224-.624-1.944-.624-.912 0-1.464.288-2.328 1.2v-.912zm13.824 1.728c-.672-1.368-1.56-1.992-2.88-1.992-1.8 0-3.144 1.296-3.144 3.048 0 1.248.48 1.896 1.968 2.616 2.184 1.08 2.328 1.176 2.328 1.848 0 .648-.48 1.08-1.2 1.08-.696 0-1.08-.312-1.632-1.32l-1.992.912c.696 1.656 1.896 2.496 3.6 2.496 2.016 0 3.6-1.488 3.6-3.408 0-.96-.408-1.728-1.224-2.28-.456-.312-.912-.552-1.92-1.032-1.08-.504-1.344-.72-1.344-1.152 0-.408.336-.72.768-.72.48 0 .816.288 1.152.936zm5.136.456h1.824V8.596h-1.824V4.9h-2.328v3.696H88.1v2.184h.984v7.92h2.328zM11.768 50.596v-6.624c.984 1.008 1.896 1.44 3.168 1.44 2.712 0 4.752-2.28 4.752-5.304 0-3.096-2.04-5.376-4.8-5.376-1.224 0-2.136.408-3.12 1.368v-1.104H9.44v15.6zm2.76-13.776c1.632 0 2.784 1.368 2.784 3.312 0 1.824-1.2 3.192-2.808 3.192-1.704 0-2.88-1.344-2.88-3.264 0-1.92 1.176-3.24 2.904-3.24zm9.96-1.824H22.16v5.856c0 1.584.288 2.448 1.056 3.288.816.84 1.92 1.272 3.24 1.272 1.344 0 2.448-.432 3.264-1.272.768-.84 1.056-1.704 1.056-3.288v-5.856h-2.328v5.808c0 1.728-.624 2.52-1.968 2.52-1.368 0-1.992-.792-1.992-2.52zm9.24 0V45.1h2.328v-5.232c0-1.992.6-2.904 1.896-2.904.48 0 .768.12 1.296.504l1.08-2.136c-.792-.48-1.224-.624-1.944-.624-.912 0-1.464.288-2.328 1.2v-.912zm15.792.432c-.936-.504-1.752-.696-2.832-.696-3.096 0-5.52 2.352-5.52 5.376 0 3 2.376 5.304 5.496 5.304 1.08 0 1.8-.192 2.856-.744v-3.096c-1.128 1.344-1.8 1.752-2.952 1.752-1.752 0-3.024-1.368-3.024-3.264 0-1.848 1.296-3.24 3.072-3.24 1.128 0 1.824.408 2.904 1.704zm2.256-7.824V45.1h2.328v-4.872c0-1.224.144-2.16.408-2.568.336-.528 1.008-.84 1.8-.84 1.272 0 1.824.696 1.824 2.304V45.1h2.328v-6.192c0-1.392-.168-2.136-.672-2.808-.6-.864-1.728-1.368-2.928-1.368-1.104 0-1.872.312-2.76 1.104v-8.232zm19.08 7.392v1.176c-1.008-1.056-1.872-1.44-3.168-1.44-2.712 0-4.752 2.256-4.752 5.304 0 3.096 2.04 5.376 4.824 5.376 1.224 0 2.016-.36 3.096-1.368V45.1h2.328V34.996zM68.12 36.82c1.704 0 2.88 1.344 2.88 3.264 0 1.92-1.176 3.24-2.904 3.24-1.632 0-2.784-1.368-2.784-3.288 0-1.848 1.2-3.216 2.808-3.216zm13.896-.096c-.672-1.368-1.56-1.992-2.88-1.992-1.8 0-3.144 1.296-3.144 3.048 0 1.248.48 1.896 1.968 2.616 2.184 1.08 2.328 1.176 2.328 1.848 0 .648-.48 1.08-1.2 1.08-.696 0-1.08-.312-1.632-1.32l-1.992.912c.696 1.656 1.896 2.496 3.6 2.496 2.016 0 3.6-1.488 3.6-3.408 0-.96-.408-1.728-1.224-2.28-.456-.312-.912-.552-1.92-1.032-1.08-.504-1.344-.72-1.344-1.152 0-.408.336-.72.768-.72.48 0 .816.288 1.152.936zm11.928 3.888v-.552c0-1.32-.288-2.496-.816-3.336-.792-1.224-2.328-1.992-3.984-1.992-2.928 0-4.872 2.136-4.872 5.352s1.992 5.328 4.992 5.328c1.272 0 2.52-.432 3.408-1.224.528-.432.84-.84 1.368-1.728l-1.968-1.104c-.936 1.512-1.56 1.968-2.736 1.968-1.488 0-2.496-1.056-2.616-2.712zm-7.08-1.896c.288-1.152 1.2-1.872 2.328-1.872 1.2 0 2.04.672 2.352 1.872z"/></svg>