<svg width="70" height="36" xmlns="http://www.w3.org/2000/svg"><path d="M7.392 5.058c-.63-1.092-1.4-1.568-2.52-1.568-1.596 0-2.8 1.064-2.8 2.478 0 1.05.616 1.82 1.918 2.366 1.26.532 1.26.532 1.582.742.42.294.644.7.644 1.232 0 .896-.644 1.554-1.526 1.554-.574 0-1.106-.28-1.344-.728-.14-.238-.196-.462-.266-1.022l-1.428.322c.098.7.238 1.064.546 1.512.546.798 1.414 1.246 2.436 1.246 1.722 0 2.996-1.274 2.996-2.982 0-1.288-.672-2.128-2.184-2.758-1.232-.504-1.232-.504-1.498-.686-.308-.21-.448-.476-.448-.784 0-.658.588-1.162 1.358-1.162.644 0 .966.21 1.4.924zm3.346-1.386H9.324v6.006c0 .91.224 1.582.714 2.198a3.527 3.527 0 0 0 2.744 1.316c1.05 0 2.086-.49 2.73-1.316.49-.616.714-1.302.714-2.198V3.672h-1.414V9.3c0 .826-.07 1.218-.294 1.61-.336.588-1.008.952-1.736.952-.742 0-1.414-.364-1.75-.952-.224-.392-.294-.784-.294-1.61zm9.142 5.544h.658c1.022 0 1.806-.266 2.352-.798.504-.476.812-1.218.812-1.974 0-.854-.392-1.694-1.022-2.184-.602-.448-1.19-.588-2.618-.588h-1.596v9.338h1.414zm0-1.302v-2.94h.462c.728 0 1.148.098 1.484.336.322.238.518.658.518 1.106 0 .448-.182.868-.476 1.12-.322.266-.742.378-1.47.378zm10.416-2.912v-1.33h-5.152v9.338h5.152v-1.33h-3.738V8.572h3.626v-1.33h-3.626v-2.24zm5.012 4.032c1.246-.266 2.072-1.316 2.072-2.618 0-.896-.434-1.736-1.12-2.198-.588-.392-1.26-.546-2.464-.546h-1.652v9.338h1.414V9.188h.252l2.66 3.822h1.722zm-1.75-1.078V5.002h.504c.658 0 1.064.098 1.4.322.336.238.546.658.546 1.106 0 .49-.224.938-.588 1.19-.322.224-.784.336-1.414.336zM44.87 5.058c-.63-1.092-1.4-1.568-2.52-1.568-1.596 0-2.8 1.064-2.8 2.478 0 1.05.616 1.82 1.918 2.366 1.26.532 1.26.532 1.582.742.42.294.644.7.644 1.232 0 .896-.644 1.554-1.526 1.554-.574 0-1.106-.28-1.344-.728-.14-.238-.196-.462-.266-1.022l-1.428.322c.098.7.238 1.064.546 1.512.546.798 1.414 1.246 2.436 1.246 1.722 0 2.996-1.274 2.996-2.982 0-1.288-.672-2.128-2.184-2.758-1.232-.504-1.232-.504-1.498-.686-.308-.21-.448-.476-.448-.784 0-.658.588-1.162 1.358-1.162.644 0 .966.21 1.4.924zm6.37-1.568c-2.674 0-4.9 2.184-4.9 4.816 0 1.274.392 2.366 1.176 3.234.924 1.022 2.31 1.652 3.654 1.652 2.73 0 4.928-2.156 4.928-4.844A4.87 4.87 0 0 0 51.24 3.49zm-.014 1.33c1.96 0 3.458 1.54 3.458 3.528 0 1.974-1.526 3.514-3.5 3.514-.854 0-1.736-.364-2.394-.994-.7-.672-1.036-1.498-1.036-2.548 0-1.96 1.54-3.5 3.472-3.5zm11.298.182v-1.33h-4.662v9.338h1.414V8.572h3.136v-1.33h-3.136v-2.24zm4.2 0h2.142v-1.33h-5.698v1.33h2.142v8.008h1.414z"/></svg>