<svg width="102" height="44" xmlns="http://www.w3.org/2000/svg"><path d="M9.405 5.862a4.962 4.962 0 0 0-3.332-1.258c-2.04 0-3.537 1.394-3.537 3.298 0 1.496.748 2.312 2.788 3.06.918.34 1.36.527 1.582.68.408.289.612.68.612 1.139 0 .935-.731 1.598-1.752 1.598-1.02 0-1.87-.544-2.38-1.513l-1.428 1.377c1.02 1.479 2.244 2.159 3.893 2.159 2.346 0 3.945-1.513 3.945-3.74 0-1.003-.34-1.819-1.003-2.38-.51-.442-1.02-.68-2.261-1.139-1.327-.493-1.718-.816-1.718-1.428 0-.697.697-1.258 1.598-1.258.715 0 1.242.255 1.837.918zm5.556 3.315V4.791h-2.21V16.13h2.21v-5.032h4.793v5.032h2.21V4.791h-2.21v4.386zm16.112-4.641c-3.366 0-6.085 2.618-6.085 5.848 0 3.4 2.6 6.001 6 6.001 3.452 0 6.12-2.567 6.12-5.916 0-3.332-2.651-5.933-6.034-5.933zm-.034 2.023c2.108 0 3.791 1.734 3.791 3.893s-1.7 3.91-3.773 3.91c-2.108 0-3.791-1.751-3.791-3.944 0-2.108 1.717-3.859 3.774-3.859zm11.32 5.372h1.427c1.343 0 2.261-.323 2.907-1.003.579-.629.919-1.547.919-2.533 0-1.088-.425-2.074-1.157-2.737-.713-.629-1.512-.867-2.991-.867h-3.316V16.13h2.21zm0-1.921V6.712h.764c.817 0 1.293.102 1.633.357.356.272.578.765.578 1.309 0 1.088-.698 1.632-2.075 1.632zm13.134 6.12h2.21V8.463l6.903 7.888h1.53V4.791h-2.21v7.633l-6.903-7.888h-1.53zM75.245 4.536c-3.367 0-6.087 2.618-6.087 5.848 0 3.4 2.602 6.001 6.001 6.001 3.451 0 6.12-2.567 6.12-5.916 0-3.332-2.651-5.933-6.034-5.933zm-.035 2.023c2.109 0 3.791 1.734 3.791 3.893s-1.7 3.91-3.773 3.91c-2.108 0-3.791-1.751-3.791-3.944 0-2.108 1.716-3.859 3.773-3.859zm10.147-1.768h-2.33l4.013 11.56h1.546l2.653-7.412 2.515 7.412h1.547l4.267-11.56H97.24l-2.72 7.718-2.635-7.82h-1.208l-2.77 7.82z"/></svg>