<svg width="232" height="66" xmlns="http://www.w3.org/2000/svg"><path d="M4.08 1.051H2.043V16.36H4.08zm10.627 11.382v-.483c0-1.155-.253-2.184-.715-2.919-.693-1.071-2.037-1.743-3.486-1.743-2.562 0-4.263 1.869-4.263 4.683s1.744 4.662 4.368 4.662c1.114 0 2.205-.378 2.982-1.071.463-.378.736-.735 1.197-1.512l-1.721-.966c-.82 1.323-1.366 1.722-2.395 1.722-1.301 0-2.183-.924-2.288-2.373zM8.51 10.774c.253-1.008 1.05-1.638 2.038-1.638 1.05 0 1.785.588 2.058 1.638zM25.48 7.519h-2.038v1.008a3.647 3.647 0 0 0-2.771-1.239c-2.395 0-4.137 1.995-4.137 4.725 0 2.667 1.742 4.62 4.116 4.62 1.113 0 1.953-.378 2.793-1.26v1.239c0 .861-.127 1.428-.4 1.848-.357.546-1.07.903-1.848.903-.819 0-1.617-.399-1.974-1.029-.21-.357-.273-.693-.335-1.449H16.89c.02 2.667 1.659 4.305 4.305 4.305 1.49 0 2.792-.63 3.527-1.701.588-.84.757-1.617.757-3.339zm-4.431 1.596c1.47 0 2.477 1.155 2.477 2.856 0 1.68-1.008 2.835-2.477 2.835a2.44 2.44 0 0 1-1.701-.714c-.505-.504-.735-1.155-.735-2.121 0-1.722.965-2.856 2.436-2.856zm15.035 3.318v-.483c0-1.155-.252-2.184-.714-2.919-.692-1.071-2.036-1.743-3.485-1.743-2.563 0-4.264 1.869-4.264 4.683s1.744 4.662 4.369 4.662c1.113 0 2.204-.378 2.982-1.071.462-.378.734-.735 1.197-1.512l-1.722-.966c-.82 1.323-1.366 1.722-2.395 1.722-1.302 0-2.183-.924-2.288-2.373zm-6.195-1.659c.253-1.008 1.05-1.638 2.038-1.638 1.05 0 1.785.588 2.057 1.638zm8.421-3.255v8.841h2.037v-4.263c0-2.184.505-2.982 1.89-2.982.63 0 1.113.231 1.365.63.21.336.274.756.274 1.68v4.935h2.037v-5.418c0-1.176-.147-1.869-.546-2.457-.505-.735-1.491-1.197-2.604-1.197-1.008 0-1.596.252-2.416 1.05v-.819zm16.695-6.468v7.497c-.86-.903-1.659-1.26-2.772-1.26-2.372 0-4.157 1.995-4.157 4.641 0 2.709 1.785 4.704 4.2 4.704 1.07 0 1.868-.357 2.73-1.197v.924h2.036V1.051zm-2.394 8.064c1.492 0 2.52 1.176 2.52 2.856s-1.029 2.835-2.54 2.835c-1.428 0-2.437-1.197-2.437-2.898 0-1.596 1.05-2.793 2.457-2.793zm13.524-1.596v1.029c-.882-.924-1.638-1.26-2.772-1.26-2.373 0-4.157 1.974-4.157 4.641 0 2.709 1.784 4.704 4.22 4.704 1.072 0 1.764-.315 2.71-1.197v.924h2.037V7.519zm-2.394 1.596c1.492 0 2.52 1.176 2.52 2.856s-1.028 2.835-2.54 2.835c-1.428 0-2.436-1.197-2.436-2.877 0-1.617 1.05-2.814 2.457-2.814zm7.014-1.596v8.841h2.038v-4.578c0-1.743.524-2.541 1.658-2.541.42 0 .673.105 1.135.441l.945-1.869c-.694-.42-1.072-.546-1.702-.546-.797 0-1.28.252-2.036 1.05v-.798zm9.745 7.182l-3.445 6.468h2.331l7.035-13.65h-2.31l-2.52 5.082-2.688-5.082H76.53zm19.046 6.468h2.037V7.519h-2.037v.966c-.86-.84-1.659-1.197-2.73-1.197-2.415 0-4.2 1.995-4.2 4.704 0 2.646 1.785 4.641 4.159 4.641 1.112 0 1.91-.378 2.771-1.26zM97.152 9.115c1.492 0 2.52 1.155 2.52 2.856 0 1.68-1.028 2.835-2.54 2.835-1.407 0-2.437-1.218-2.437-2.898 0-1.596 1.05-2.793 2.458-2.793zm9.052-1.596h-2.037v5.124c0 1.386.251 2.142.924 2.877.714.735 1.68 1.113 2.835 1.113 1.175 0 2.141-.378 2.855-1.113.672-.735.924-1.491.924-2.877V7.519h-2.037v5.082c0 1.512-.546 2.205-1.722 2.205-1.197 0-1.742-.693-1.742-2.205zm14.595 0v1.029c-.883-.924-1.639-1.26-2.773-1.26-2.373 0-4.157 1.974-4.157 4.641 0 2.709 1.784 4.704 4.22 4.704 1.072 0 1.764-.315 2.71-1.197v.924h2.036V7.519zm-2.395 1.596c1.492 0 2.52 1.176 2.52 2.856s-1.029 2.835-2.54 2.835c-1.428 0-2.436-1.197-2.436-2.877 0-1.617 1.05-2.814 2.457-2.814zm9.052-8.064h-2.038V16.36h2.037zm4.64 6.468h-2.036v8.841h2.036zm-1.029-4.998c-.714 0-1.323.609-1.323 1.323a1.34 1.34 0 0 0 1.345 1.344c.734 0 1.322-.609 1.322-1.344 0-.735-.588-1.323-1.344-1.323zm5.691 6.909h1.596V7.519h-1.596V4.285h-2.037v3.234h-.86V9.43h.86v6.93h2.037zm5.775 5.271l-3.444 6.468h2.332l7.035-13.65h-2.31l-2.52 5.082-2.689-5.082h-2.373zm8.338-.966l-2.143 5.334 1.386.567 2.583-5.187zm14.657-4.704c-.588-1.197-1.364-1.743-2.52-1.743-1.575 0-2.75 1.134-2.75 2.667 0 1.092.42 1.659 1.721 2.289 1.911.945 2.037 1.029 2.037 1.617 0 .567-.42.945-1.05.945-.609 0-.945-.273-1.428-1.155l-1.743.798c.61 1.449 1.66 2.184 3.15 2.184 1.764 0 3.15-1.302 3.15-2.982 0-.84-.357-1.512-1.07-1.995-.4-.273-.799-.483-1.68-.903-.946-.441-1.177-.63-1.177-1.008 0-.357.294-.63.672-.63.42 0 .714.252 1.008.819zm8.905-1.512v1.029c-.882-.924-1.638-1.26-2.772-1.26-2.374 0-4.159 1.974-4.159 4.641 0 2.709 1.785 4.704 4.221 4.704 1.071 0 1.764-.315 2.71-1.197v.924h2.037V7.519zm-2.394 1.596c1.49 0 2.52 1.176 2.52 2.856s-1.03 2.835-2.541 2.835c-1.429 0-2.436-1.197-2.436-2.877 0-1.617 1.05-2.814 2.457-2.814zm9.135.315h2.225V7.519h-2.226V4.621c0-1.449.21-1.869.924-1.869.379 0 .546.063 1.302.441V1.114c-.588-.252-.881-.315-1.364-.315-.924 0-1.849.378-2.31.966-.42.483-.588 1.197-.588 2.352v3.402h-.736V9.43h.736v6.93h2.036zm11.423 3.003v-.483c0-1.155-.252-2.184-.714-2.919-.693-1.071-2.037-1.743-3.486-1.743-2.561 0-4.262 1.869-4.262 4.683s1.743 4.662 4.368 4.662c1.113 0 2.205-.378 2.982-1.071.461-.378.734-.735 1.196-1.512l-1.722-.966c-.819 1.323-1.364 1.722-2.394 1.722-1.302 0-2.184-.924-2.288-2.373zm-6.195-1.659c.253-1.008 1.05-1.638 2.038-1.638 1.05 0 1.785.588 2.058 1.638zm20.181-3.255v1.029c-.881-.924-1.637-1.26-2.772-1.26-2.373 0-4.157 1.974-4.157 4.641 0 2.709 1.785 4.704 4.22 4.704 1.072 0 1.764-.315 2.71-1.197v.924h2.036V7.519zm-2.393 1.596c1.49 0 2.52 1.176 2.52 2.856s-1.03 2.835-2.542 2.835c-1.428 0-2.436-1.197-2.436-2.877 0-1.617 1.05-2.814 2.458-2.814zm7.013-1.596v8.841h2.037v-4.263c0-2.184.504-2.982 1.89-2.982.63 0 1.114.231 1.365.63.21.336.273.756.273 1.68v4.935h2.037v-5.418c0-1.176-.147-1.869-.546-2.457-.503-.735-1.49-1.197-2.603-1.197-1.008 0-1.596.252-2.416 1.05v-.819zM227.9 1.051v7.497c-.862-.903-1.66-1.26-2.773-1.26-2.373 0-4.157 1.995-4.157 4.641 0 2.709 1.785 4.704 4.2 4.704 1.07 0 1.868-.357 2.73-1.197v.924h2.036V1.051zm-2.394 8.064c1.49 0 2.52 1.176 2.52 2.856s-1.03 2.835-2.542 2.835c-1.428 0-2.435-1.197-2.435-2.898 0-1.596 1.05-2.793 2.457-2.793zM22.518 32.131c-.588-1.197-1.364-1.743-2.52-1.743-1.575 0-2.75 1.134-2.75 2.667 0 1.092.42 1.659 1.721 2.289 1.912.945 2.037 1.029 2.037 1.617 0 .567-.42.945-1.05.945-.608 0-.944-.273-1.427-1.155l-1.744.798c.61 1.449 1.66 2.184 3.15 2.184 1.765 0 3.15-1.302 3.15-2.982 0-.84-.357-1.512-1.07-1.995-.4-.273-.799-.483-1.68-.903-.945-.441-1.177-.63-1.177-1.008 0-.357.294-.63.672-.63.42 0 .715.252 1.009.819zm6.678-1.743c-2.604 0-4.704 2.058-4.704 4.599 0 2.688 2.037 4.746 4.683 4.746 2.688 0 4.747-2.037 4.747-4.683 0-2.625-2.058-4.662-4.725-4.662zm0 1.827c1.596 0 2.646 1.134 2.646 2.856 0 1.701-1.05 2.835-2.645 2.835-1.596 0-2.625-1.134-2.625-2.877 0-1.68 1.07-2.814 2.625-2.814zm8.988.315h2.227v-1.911h-2.227v-2.898c0-1.449.21-1.869.925-1.869.377 0 .545.063 1.301.441v-2.079c-.587-.252-.881-.315-1.364-.315-.925 0-1.849.378-2.31.966-.42.483-.588 1.197-.588 2.352v3.402h-.736v1.911h.736v6.93h2.036zm5.482 0h1.596v-1.911h-1.596v-3.234h-2.037v3.234h-.861v1.911h.86v6.93h2.038zm8.232-1.911v8.841h2.036v-4.263c0-2.184.505-2.982 1.89-2.982.63 0 1.114.231 1.366.63.21.336.273.756.273 1.68v4.935h2.036v-5.418c0-1.176-.147-1.869-.546-2.457-.504-.735-1.49-1.197-2.604-1.197-1.007 0-1.595.252-2.414 1.05v-.819zm18.227 4.914v-.483c0-1.155-.251-2.184-.713-2.919-.694-1.071-2.038-1.743-3.487-1.743-2.561 0-4.262 1.869-4.262 4.683s1.743 4.662 4.368 4.662c1.112 0 2.204-.378 2.981-1.071.463-.378.736-.735 1.198-1.512l-1.722-.966c-.82 1.323-1.365 1.722-2.394 1.722-1.302 0-2.184-.924-2.29-2.373zm-6.194-1.659c.252-1.008 1.05-1.638 2.037-1.638 1.05 0 1.784.588 2.057 1.638zm11.172.798l-3.927 4.788h2.498l2.646-3.297 2.605 3.297h2.415l-3.78-4.788 3.275-4.053h-2.498l-2.017 2.583-1.952-2.583h-2.436zm9.723-2.142h1.596v-1.911h-1.596v-3.234h-2.037v3.234h-.862v1.911h.861v6.93h2.038zm10.332 0h1.596v-1.911h-1.597v-3.234h-2.036v3.234h-.861v1.911h.86v6.93h2.037zm7.266-2.142c-2.605 0-4.705 2.058-4.705 4.599 0 2.688 2.038 4.746 4.684 4.746 2.688 0 4.745-2.037 4.745-4.683 0-2.625-2.057-4.662-4.724-4.662zm0 1.827c1.595 0 2.645 1.134 2.645 2.856 0 1.701-1.05 2.835-2.645 2.835-1.597 0-2.626-1.134-2.626-2.877 0-1.68 1.072-2.814 2.626-2.814zm14.153-8.064h-2.037V39.46h2.037v-.924c.862.84 1.66 1.197 2.73 1.197 2.415 0 4.2-1.995 4.2-4.704 0-2.646-1.785-4.641-4.157-4.641-1.113 0-1.911.357-2.772 1.26zm2.416 8.064c1.407 0 2.436 1.218 2.436 2.898 0 1.596-1.05 2.793-2.457 2.793-1.512 0-2.52-1.155-2.52-2.856 0-1.68 1.029-2.835 2.54-2.835zm13.188-1.596v1.029c-.883-.924-1.639-1.26-2.773-1.26-2.372 0-4.157 1.974-4.157 4.641 0 2.709 1.784 4.704 4.22 4.704 1.071 0 1.764-.315 2.71-1.197v.924h2.036v-8.841zm-2.395 1.596c1.492 0 2.52 1.176 2.52 2.856s-1.029 2.835-2.54 2.835c-1.428 0-2.436-1.197-2.436-2.877 0-1.617 1.05-2.814 2.456-2.814zm9.052-8.064H136.8V39.46h2.037v-.924c.86.84 1.659 1.197 2.73 1.197 2.414 0 4.2-1.995 4.2-4.704 0-2.646-1.786-4.641-4.159-4.641-1.113 0-1.91.357-2.772 1.26zm2.415 8.064c1.407 0 2.436 1.218 2.436 2.898 0 1.596-1.05 2.793-2.457 2.793-1.512 0-2.52-1.155-2.52-2.856 0-1.68 1.029-2.835 2.54-2.835zm9.47 5.586l-3.444 6.468h2.332l7.035-13.65h-2.31l-2.52 5.082-2.689-5.082h-2.373zm8.925-6.72l.379-5.628h-2.31l.377 5.628zm7.813 1.05c-.589-1.197-1.366-1.743-2.52-1.743-1.576 0-2.751 1.134-2.751 2.667 0 1.092.42 1.659 1.721 2.289 1.911.945 2.037 1.029 2.037 1.617 0 .567-.42.945-1.05.945-.608 0-.945-.273-1.428-1.155l-1.743.798c.61 1.449 1.66 2.184 3.15 2.184 1.764 0 3.15-1.302 3.15-2.982 0-.84-.356-1.512-1.07-1.995-.4-.273-.798-.483-1.68-.903-.945-.441-1.176-.63-1.176-1.008 0-.357.293-.63.672-.63.42 0 .714.252 1.007.819zm12.788 0c-.588-1.197-1.364-1.743-2.52-1.743-1.575 0-2.75 1.134-2.75 2.667 0 1.092.42 1.659 1.721 2.289 1.912.945 2.038 1.029 2.038 1.617 0 .567-.42.945-1.05.945-.61 0-.945-.273-1.428-1.155l-1.743.798c.608 1.449 1.659 2.184 3.15 2.184 1.763 0 3.15-1.302 3.15-2.982 0-.84-.358-1.512-1.072-1.995-.399-.273-.798-.483-1.68-.903-.945-.441-1.175-.63-1.175-1.008 0-.357.294-.63.672-.63.42 0 .713.252 1.007.819zm4.431-7.98h-2.037V39.46h2.037v-3.402l.315-.315 2.92 3.717h2.645l-4.115-5.124 3.843-3.717h-2.752l-2.856 2.856zm9.261 6.468h-2.036v8.841h2.036zm-1.029-4.998c-.714 0-1.323.609-1.323 1.323a1.34 1.34 0 0 0 1.345 1.344c.734 0 1.322-.609 1.322-1.344 0-.735-.588-1.323-1.344-1.323zm3.591 4.998v8.841h2.038v-4.263c0-2.184.504-2.982 1.89-2.982.63 0 1.112.231 1.364.63.21.336.274.756.274 1.68v4.935h2.037v-5.418c0-1.176-.148-1.869-.546-2.457-.505-.735-1.492-1.197-2.605-1.197-1.008 0-1.596.252-2.415 1.05v-.819z"/></svg>