<svg width="131" height="52" xmlns="http://www.w3.org/2000/svg"><path d="M8.168 18.03h4.275c1.405 0 2.412-.304 3.154-.969.722-.646 1.12-1.596 1.12-2.603 0-.931-.341-1.824-.911-2.394-.4-.418-.798-.608-1.653-.798.493-.304.702-.475.912-.76.285-.456.475-1.121.475-1.805 0-1.045-.438-2.033-1.14-2.584-.646-.513-1.635-.76-3.098-.76H8.168zm2.47-7.391V7.352h.74c1.236 0 1.881.551 1.881 1.634 0 1.102-.646 1.653-1.918 1.653zm0 5.396V12.52h.93c1.027 0 1.425.076 1.863.361.475.285.74.798.74 1.406 0 1.178-.797 1.748-2.47 1.748zm15.865-.684l1.082 2.679h2.642l-5.32-12.939h-1.863l-5.49 12.939h2.622l1.14-2.679zm-.78-1.995h-3.61l1.843-4.56zm6.005 4.674h4.274c1.406 0 2.413-.304 3.154-.969.723-.646 1.122-1.596 1.122-2.603 0-.931-.343-1.824-.913-2.394-.398-.418-.797-.608-1.653-.798.494-.304.703-.475.912-.76.285-.456.475-1.121.475-1.805 0-1.045-.436-2.033-1.14-2.584-.646-.513-1.634-.76-3.097-.76h-3.135zm2.47-7.391V7.352h.74c1.235 0 1.881.551 1.881 1.634 0 1.102-.646 1.653-1.919 1.653zm0 5.396V12.52h.93c1.026 0 1.425.076 1.862.361.475.285.741.798.741 1.406 0 1.178-.797 1.748-2.47 1.748zm11.172-3.819v5.814h2.47v-5.814l4.445-6.859h-2.944l-2.68 4.408-2.736-4.408H41zm8.265 5.814h4.275c1.406 0 2.413-.304 3.154-.969.721-.646 1.12-1.596 1.12-2.603 0-.931-.341-1.824-.911-2.394-.4-.418-.799-.608-1.654-.798.495-.304.703-.475.913-.76.285-.456.475-1.121.475-1.805 0-1.045-.438-2.033-1.14-2.584-.646-.513-1.634-.76-3.097-.76h-3.136zm2.47-7.391V7.352h.74c1.236 0 1.882.551 1.882 1.634 0 1.102-.646 1.653-1.92 1.653zm0 5.396V12.52h.93c1.027 0 1.426.076 1.863.361.474.285.74.798.74 1.406 0 1.178-.797 1.748-2.47 1.748zm10.83-10.678h-2.47v7.752c0 1.482.284 2.527.93 3.382.874 1.14 2.433 1.824 4.162 1.824 1.728 0 3.287-.684 4.16-1.824.647-.855.931-1.9.931-3.382V5.357h-2.47v7.258c0 1.292-.075 1.71-.398 2.261-.418.722-1.273 1.178-2.224 1.178-.95 0-1.805-.456-2.222-1.178-.324-.551-.4-.969-.4-2.261zM76.87 18.03h2.49l1.272-7.809 3.364 7.98h.683l3.477-7.98 1.14 7.809h2.49l-2.11-12.901h-1.71l-3.59 8.284-3.459-8.284h-1.69zm19.647-4.693h1.596c1.5 0 2.526-.361 3.248-1.121.647-.703 1.026-1.729 1.026-2.831 0-1.216-.475-2.318-1.291-3.059-.798-.703-1.691-.969-3.344-.969h-3.706V18.03h2.47zm0-2.147V7.504h.855c.911 0 1.444.114 1.823.399.4.304.647.855.647 1.463 0 1.216-.78 1.824-2.319 1.824zm11.171 4.693l2.205-2.337c1.614-1.71 2.298-3.021 2.298-4.427 0-2.356-1.9-4.085-4.464-4.085-2.566 0-4.275 1.653-4.447 4.275h2.641c.058-1.311.742-2.09 1.882-2.09 1.064 0 1.918.836 1.918 1.919 0 1.064-.607 2.033-2.906 4.655l-3.743 4.237h9.215v-2.147zm11.23-10.849c-1.388 0-2.68.703-3.61 1.938-.855 1.159-1.311 2.774-1.311 4.617 0 2.071.417 3.572 1.31 4.826.893 1.235 2.204 1.938 3.61 1.938 1.387 0 2.698-.722 3.591-1.938.874-1.235 1.311-2.774 1.311-4.731 0-1.957-.436-3.496-1.31-4.712-.913-1.235-2.205-1.938-3.592-1.938zm0 2.185c1.425 0 2.431 1.862 2.431 4.465 0 2.622-1.006 4.484-2.431 4.484-1.444 0-2.451-1.862-2.451-4.541 0-2.546 1.025-4.408 2.45-4.408z" fill="#fff"/></svg>